<mxfile host="app.diagrams.net" agent="Mozilla/5.0 (Macintosh; Intel Mac OS X 10_15_7) AppleWebKit/537.36 (KHTML, like Gecko) Chrome/133.0.0.0 Safari/537.36" version="26.1.0">
  <diagram name="第 1 页" id="4_bbG6_4XegiYZ1PD1aw">
    <mxGraphModel dx="1306" dy="727" grid="1" gridSize="10" guides="1" tooltips="1" connect="1" arrows="1" fold="1" page="1" pageScale="1" pageWidth="827" pageHeight="1169" math="0" shadow="0">
      <root>
        <mxCell id="0" />
        <mxCell id="1" parent="0" />
        <mxCell id="2WKFSzGb17ybtDQSsWqb-11" value="用户" style="shape=umlLifeline;perimeter=lifelinePerimeter;whiteSpace=wrap;container=1;dropTarget=0;collapsible=0;recursiveResize=0;outlineConnect=0;portConstraint=eastwest;newEdgeStyle={&quot;edgeStyle&quot;:&quot;elbowEdgeStyle&quot;,&quot;elbow&quot;:&quot;vertical&quot;,&quot;curved&quot;:0,&quot;rounded&quot;:0};size=65;" vertex="1" parent="1">
          <mxGeometry x="290" y="280" width="150" height="1297" as="geometry" />
        </mxCell>
        <mxCell id="2WKFSzGb17ybtDQSsWqb-12" value="商户系统" style="shape=umlLifeline;perimeter=lifelinePerimeter;whiteSpace=wrap;container=1;dropTarget=0;collapsible=0;recursiveResize=0;outlineConnect=0;portConstraint=eastwest;newEdgeStyle={&quot;edgeStyle&quot;:&quot;elbowEdgeStyle&quot;,&quot;elbow&quot;:&quot;vertical&quot;,&quot;curved&quot;:0,&quot;rounded&quot;:0};size=65;" vertex="1" parent="1">
          <mxGeometry x="490" y="280" width="150" height="1297" as="geometry" />
        </mxCell>
        <mxCell id="2WKFSzGb17ybtDQSsWqb-13" value="" style="points=[];perimeter=orthogonalPerimeter;outlineConnect=0;targetShapes=umlLifeline;portConstraint=eastwest;newEdgeStyle={&quot;edgeStyle&quot;:&quot;elbowEdgeStyle&quot;,&quot;elbow&quot;:&quot;vertical&quot;,&quot;curved&quot;:0,&quot;rounded&quot;:0}" vertex="1" parent="2WKFSzGb17ybtDQSsWqb-12">
          <mxGeometry x="70" y="172" width="10" height="354" as="geometry" />
        </mxCell>
        <mxCell id="2WKFSzGb17ybtDQSsWqb-14" value="支付网关" style="shape=umlLifeline;perimeter=lifelinePerimeter;whiteSpace=wrap;container=1;dropTarget=0;collapsible=0;recursiveResize=0;outlineConnect=0;portConstraint=eastwest;newEdgeStyle={&quot;edgeStyle&quot;:&quot;elbowEdgeStyle&quot;,&quot;elbow&quot;:&quot;vertical&quot;,&quot;curved&quot;:0,&quot;rounded&quot;:0};size=65;" vertex="1" parent="1">
          <mxGeometry x="763" y="280" width="150" height="1297" as="geometry" />
        </mxCell>
        <mxCell id="2WKFSzGb17ybtDQSsWqb-15" value="银行系统" style="shape=umlLifeline;perimeter=lifelinePerimeter;whiteSpace=wrap;container=1;dropTarget=0;collapsible=0;recursiveResize=0;outlineConnect=0;portConstraint=eastwest;newEdgeStyle={&quot;edgeStyle&quot;:&quot;elbowEdgeStyle&quot;,&quot;elbow&quot;:&quot;vertical&quot;,&quot;curved&quot;:0,&quot;rounded&quot;:0};size=65;" vertex="1" parent="1">
          <mxGeometry x="989" y="280" width="150" height="1297" as="geometry" />
        </mxCell>
        <mxCell id="2WKFSzGb17ybtDQSsWqb-16" value="风控系统" style="shape=umlLifeline;perimeter=lifelinePerimeter;whiteSpace=wrap;container=1;dropTarget=0;collapsible=0;recursiveResize=0;outlineConnect=0;portConstraint=eastwest;newEdgeStyle={&quot;edgeStyle&quot;:&quot;elbowEdgeStyle&quot;,&quot;elbow&quot;:&quot;vertical&quot;,&quot;curved&quot;:0,&quot;rounded&quot;:0};size=65;" vertex="1" parent="1">
          <mxGeometry x="1189" y="280" width="150" height="1297" as="geometry" />
        </mxCell>
        <mxCell id="2WKFSzGb17ybtDQSsWqb-17" value="" style="shape=umlFrame;dashed=1;pointerEvents=0;dropTarget=0;strokeColor=#B3B3B3;height=20;width=0" vertex="1" parent="1">
          <mxGeometry x="330" y="355" width="945" height="461" as="geometry" />
        </mxCell>
        <mxCell id="2WKFSzGb17ybtDQSsWqb-18" value="" style="text;strokeColor=none;fillColor=none;align=center;verticalAlign=middle;whiteSpace=wrap;" vertex="1" parent="2WKFSzGb17ybtDQSsWqb-17">
          <mxGeometry width="945" height="20" as="geometry" />
        </mxCell>
        <mxCell id="2WKFSzGb17ybtDQSsWqb-19" value="break" style="shape=umlFrame;dashed=1;pointerEvents=0;dropTarget=0;strokeColor=#B3B3B3;height=20;width=50" vertex="1" parent="1">
          <mxGeometry x="554" y="1218" width="295" height="93" as="geometry" />
        </mxCell>
        <mxCell id="2WKFSzGb17ybtDQSsWqb-20" value="[成功]" style="text;strokeColor=none;fillColor=none;align=center;verticalAlign=middle;whiteSpace=wrap;" vertex="1" parent="2WKFSzGb17ybtDQSsWqb-19">
          <mxGeometry x="50" width="245" height="20" as="geometry" />
        </mxCell>
        <mxCell id="2WKFSzGb17ybtDQSsWqb-21" value="loop" style="shape=umlFrame;dashed=1;pointerEvents=0;dropTarget=0;strokeColor=#B3B3B3;height=20;width=40" vertex="1" parent="1">
          <mxGeometry x="544" y="1077" width="531" height="244" as="geometry" />
        </mxCell>
        <mxCell id="2WKFSzGb17ybtDQSsWqb-22" value="[3次重试]" style="text;strokeColor=none;fillColor=none;align=center;verticalAlign=middle;whiteSpace=wrap;" vertex="1" parent="2WKFSzGb17ybtDQSsWqb-21">
          <mxGeometry x="40" width="491" height="20" as="geometry" />
        </mxCell>
        <mxCell id="2WKFSzGb17ybtDQSsWqb-23" value="alt" style="shape=umlFrame;dashed=1;pointerEvents=0;dropTarget=0;strokeColor=#B3B3B3;height=20;width=30" vertex="1" parent="1">
          <mxGeometry x="354" y="1331" width="495" height="141" as="geometry" />
        </mxCell>
        <mxCell id="2WKFSzGb17ybtDQSsWqb-24" value="[最终失败]" style="text;strokeColor=none;fillColor=none;align=center;verticalAlign=middle;whiteSpace=wrap;" vertex="1" parent="2WKFSzGb17ybtDQSsWqb-23">
          <mxGeometry x="30" width="465" height="20" as="geometry" />
        </mxCell>
        <mxCell id="2WKFSzGb17ybtDQSsWqb-25" value="" style="shape=umlFrame;dashed=1;pointerEvents=0;dropTarget=0;strokeColor=#B3B3B3;height=20;width=0" vertex="1" parent="1">
          <mxGeometry x="344" y="826" width="755" height="656" as="geometry" />
        </mxCell>
        <mxCell id="2WKFSzGb17ybtDQSsWqb-26" value="" style="text;strokeColor=none;fillColor=none;align=center;verticalAlign=middle;whiteSpace=wrap;" vertex="1" parent="2WKFSzGb17ybtDQSsWqb-25">
          <mxGeometry width="755" height="20" as="geometry" />
        </mxCell>
        <mxCell id="2WKFSzGb17ybtDQSsWqb-27" value="提交订单(订单ID)" style="verticalAlign=bottom;edgeStyle=elbowEdgeStyle;elbow=vertical;curved=0;rounded=0;endArrow=block;" edge="1" parent="1" source="2WKFSzGb17ybtDQSsWqb-11" target="2WKFSzGb17ybtDQSsWqb-13">
          <mxGeometry relative="1" as="geometry">
            <Array as="points">
              <mxPoint x="474" y="452" />
            </Array>
          </mxGeometry>
        </mxCell>
        <mxCell id="2WKFSzGb17ybtDQSsWqb-28" value="创建支付请求(金额、订单ID)" style="verticalAlign=bottom;edgeStyle=elbowEdgeStyle;elbow=vertical;curved=0;rounded=0;endArrow=block;" edge="1" parent="1" source="2WKFSzGb17ybtDQSsWqb-13" target="2WKFSzGb17ybtDQSsWqb-14">
          <mxGeometry relative="1" as="geometry">
            <Array as="points">
              <mxPoint x="712" y="500" />
            </Array>
          </mxGeometry>
        </mxCell>
        <mxCell id="2WKFSzGb17ybtDQSsWqb-29" value="风控校验(IP/设备指纹)" style="verticalAlign=bottom;edgeStyle=elbowEdgeStyle;elbow=vertical;curved=0;rounded=0;endArrow=block;" edge="1" parent="1" source="2WKFSzGb17ybtDQSsWqb-14" target="2WKFSzGb17ybtDQSsWqb-16">
          <mxGeometry relative="1" as="geometry">
            <Array as="points">
              <mxPoint x="1060" y="556" />
            </Array>
          </mxGeometry>
        </mxCell>
        <mxCell id="2WKFSzGb17ybtDQSsWqb-30" value="风险评估通过" style="verticalAlign=bottom;edgeStyle=elbowEdgeStyle;elbow=vertical;curved=0;rounded=0;dashed=1;dashPattern=2 3;endArrow=block;" edge="1" parent="1" source="2WKFSzGb17ybtDQSsWqb-16" target="2WKFSzGb17ybtDQSsWqb-14">
          <mxGeometry relative="1" as="geometry">
            <Array as="points">
              <mxPoint x="1063" y="604" />
            </Array>
          </mxGeometry>
        </mxCell>
        <mxCell id="2WKFSzGb17ybtDQSsWqb-31" value="扣款请求(卡号、金额)" style="verticalAlign=bottom;edgeStyle=elbowEdgeStyle;elbow=vertical;curved=0;rounded=0;endArrow=block;" edge="1" parent="1" source="2WKFSzGb17ybtDQSsWqb-14" target="2WKFSzGb17ybtDQSsWqb-15">
          <mxGeometry relative="1" as="geometry">
            <Array as="points">
              <mxPoint x="960" y="652" />
            </Array>
          </mxGeometry>
        </mxCell>
        <mxCell id="2WKFSzGb17ybtDQSsWqb-32" value="扣款成功(银行流水号)" style="verticalAlign=bottom;edgeStyle=elbowEdgeStyle;elbow=vertical;curved=0;rounded=0;dashed=1;dashPattern=2 3;endArrow=block;" edge="1" parent="1" source="2WKFSzGb17ybtDQSsWqb-15" target="2WKFSzGb17ybtDQSsWqb-14">
          <mxGeometry relative="1" as="geometry">
            <Array as="points">
              <mxPoint x="963" y="700" />
            </Array>
          </mxGeometry>
        </mxCell>
        <mxCell id="2WKFSzGb17ybtDQSsWqb-33" value="支付成功通知" style="verticalAlign=bottom;edgeStyle=elbowEdgeStyle;elbow=vertical;curved=0;rounded=0;dashed=1;dashPattern=2 3;endArrow=block;" edge="1" parent="1" source="2WKFSzGb17ybtDQSsWqb-14" target="2WKFSzGb17ybtDQSsWqb-13">
          <mxGeometry relative="1" as="geometry">
            <Array as="points">
              <mxPoint x="715" y="748" />
            </Array>
          </mxGeometry>
        </mxCell>
        <mxCell id="2WKFSzGb17ybtDQSsWqb-34" value="展示支付结果" style="verticalAlign=bottom;edgeStyle=elbowEdgeStyle;elbow=vertical;curved=0;rounded=0;dashed=1;dashPattern=2 3;endArrow=block;" edge="1" parent="1" source="2WKFSzGb17ybtDQSsWqb-13" target="2WKFSzGb17ybtDQSsWqb-11">
          <mxGeometry relative="1" as="geometry">
            <Array as="points">
              <mxPoint x="475" y="796" />
            </Array>
          </mxGeometry>
        </mxCell>
        <mxCell id="2WKFSzGb17ybtDQSsWqb-35" value="扣款请求" style="verticalAlign=bottom;edgeStyle=elbowEdgeStyle;elbow=vertical;curved=0;rounded=0;endArrow=block;" edge="1" parent="1" source="2WKFSzGb17ybtDQSsWqb-14" target="2WKFSzGb17ybtDQSsWqb-15">
          <mxGeometry relative="1" as="geometry">
            <Array as="points">
              <mxPoint x="960" y="923" />
            </Array>
          </mxGeometry>
        </mxCell>
        <mxCell id="2WKFSzGb17ybtDQSsWqb-36" value="网络超时" style="verticalAlign=bottom;edgeStyle=elbowEdgeStyle;elbow=vertical;curved=0;rounded=0;endArrow=cross;dashed=1;dashPattern=2 3;" edge="1" parent="1" source="2WKFSzGb17ybtDQSsWqb-15" target="2WKFSzGb17ybtDQSsWqb-14">
          <mxGeometry relative="1" as="geometry">
            <Array as="points">
              <mxPoint x="963" y="971" />
            </Array>
          </mxGeometry>
        </mxCell>
        <mxCell id="2WKFSzGb17ybtDQSsWqb-37" value="启动重试机制(3次/5秒间隔)" style="curved=1;endArrow=block;rounded=0;" edge="1" parent="1" source="2WKFSzGb17ybtDQSsWqb-14" target="2WKFSzGb17ybtDQSsWqb-14">
          <mxGeometry relative="1" as="geometry">
            <Array as="points">
              <mxPoint x="889" y="1027" />
              <mxPoint x="889" y="1057" />
            </Array>
          </mxGeometry>
        </mxCell>
        <mxCell id="2WKFSzGb17ybtDQSsWqb-38" value="重试扣款请求" style="verticalAlign=bottom;edgeStyle=elbowEdgeStyle;elbow=vertical;curved=0;rounded=0;endArrow=block;" edge="1" parent="1" source="2WKFSzGb17ybtDQSsWqb-14" target="2WKFSzGb17ybtDQSsWqb-15">
          <mxGeometry relative="1" as="geometry">
            <Array as="points">
              <mxPoint x="960" y="1150" />
            </Array>
          </mxGeometry>
        </mxCell>
        <mxCell id="2WKFSzGb17ybtDQSsWqb-39" value="扣款成功" style="verticalAlign=bottom;edgeStyle=elbowEdgeStyle;elbow=vertical;curved=0;rounded=0;dashed=1;dashPattern=2 3;endArrow=block;" edge="1" parent="1" source="2WKFSzGb17ybtDQSsWqb-15" target="2WKFSzGb17ybtDQSsWqb-14">
          <mxGeometry relative="1" as="geometry">
            <Array as="points">
              <mxPoint x="963" y="1198" />
            </Array>
          </mxGeometry>
        </mxCell>
        <mxCell id="2WKFSzGb17ybtDQSsWqb-40" value="异步通知结果" style="verticalAlign=bottom;edgeStyle=elbowEdgeStyle;elbow=horizontal;curved=0;rounded=0;dashed=1;dashPattern=2 3;endArrow=block;" edge="1" parent="1" source="2WKFSzGb17ybtDQSsWqb-14" target="2WKFSzGb17ybtDQSsWqb-12">
          <mxGeometry relative="1" as="geometry">
            <Array as="points">
              <mxPoint x="713" y="1291" />
            </Array>
          </mxGeometry>
        </mxCell>
        <mxCell id="2WKFSzGb17ybtDQSsWqb-41" value="支付失败通知" style="verticalAlign=bottom;edgeStyle=elbowEdgeStyle;elbow=vertical;curved=0;rounded=0;dashed=1;dashPattern=2 3;endArrow=block;" edge="1" parent="1" source="2WKFSzGb17ybtDQSsWqb-14" target="2WKFSzGb17ybtDQSsWqb-12">
          <mxGeometry relative="1" as="geometry">
            <Array as="points">
              <mxPoint x="713" y="1404" />
            </Array>
          </mxGeometry>
        </mxCell>
        <mxCell id="2WKFSzGb17ybtDQSsWqb-42" value="展示失败页面" style="verticalAlign=bottom;edgeStyle=elbowEdgeStyle;elbow=vertical;curved=0;rounded=0;dashed=1;dashPattern=2 3;endArrow=block;" edge="1" parent="1" source="2WKFSzGb17ybtDQSsWqb-12" target="2WKFSzGb17ybtDQSsWqb-11">
          <mxGeometry relative="1" as="geometry">
            <Array as="points">
              <mxPoint x="477" y="1452" />
            </Array>
          </mxGeometry>
        </mxCell>
        <mxCell id="2WKFSzGb17ybtDQSsWqb-43" value="支付主流程" style="fillColor=#ffff88;strokeColor=#9E916F;" vertex="1" parent="1">
          <mxGeometry x="340" y="375" width="250" height="49" as="geometry" />
        </mxCell>
        <mxCell id="2WKFSzGb17ybtDQSsWqb-44" value="异常处理流程" style="fillColor=#ffff88;strokeColor=#9E916F;" vertex="1" parent="1">
          <mxGeometry x="813" y="846" width="276" height="49" as="geometry" />
        </mxCell>
      </root>
    </mxGraphModel>
  </diagram>
</mxfile>
